<svg version="1.2" xmlns="http://www.w3.org/2000/svg" viewBox="0 0 97 120" width="97" height="120">
	<title>СБП_логотип-svg</title>
	<style>
		.s0 { fill: #5b57a2 } 
		.s1 { fill: #d90751 } 
		.s2 { fill: #fab718 } 
		.s3 { fill: #ed6f26 } 
		.s4 { fill: #63b22f } 
		.s5 { fill: #1487c9 } 
		.s6 { fill: #017f36 } 
		.s7 { fill: #984995 } 
	</style>
	<path id="path66" class="s0" d="m0 26.1l14.5 26v15.8l-14.5 26z"/>
	<path id="path68" class="s1" d="m55.8 42.6l13.6-8.3h27.9l-41.5 25.4z"/>
	<path id="path70" class="s2" d="m55.7 26l0.1 34.4-14.6-9v-51.4c0 0 14.5 26 14.5 26z"/>
	<path id="path72" class="s3" d="m97.3 34.3h-27.9l-13.7-8.3-14.5-26c0 0 56.1 34.3 56.1 34.3z"/>
	<path id="path74" class="s4" d="m55.8 94v-16.7l-14.6-8.8v51.5z"/>
	<path id="path76" class="s5" d="m69.4 85.7l-54.9-33.6-14.5-26 97.2 59.6c0 0-27.8 0-27.8 0z"/>
	<path id="path78" class="s6" d="m41.2 120l14.6-26 13.6-8.3h27.8z"/>
	<path id="path80" class="s7" d="m0 93.9l41.4-25.4-13.9-8.5-13 7.9z"/>
</svg>