<svg version="1.2" xmlns="http://www.w3.org/2000/svg" viewBox="0 0 24 24" width="24" height="24">
	<title>sber_ff-svg</title>
	<defs>
		<clipPath clipPathUnits="userSpaceOnUse" id="cp1">
			<path d="m-3 0h89.68v26.88h-89.68z"/>
		</clipPath>
		<clipPath clipPathUnits="userSpaceOnUse" id="cp2">
			<path d="m0 12c0 3.31 1.33 6.31 3.49 8.48l1.95-1.96c-1.66-1.67-2.69-3.98-2.69-6.52q0-0.23 0.01-0.46l-2.75-0.14q-0.01 0.3-0.01 0.6z"/>
		</clipPath>
		<linearGradient id="g1" x2="1" gradientUnits="userSpaceOnUse" gradientTransform="matrix(-3.047,-8.744,6.847,-2.386,6.953,19.156)">
			<stop offset="0" stop-color="#f2e913"/>
			<stop offset=".14" stop-color="#f2e913"/>
			<stop offset=".3" stop-color="#e7e518"/>
			<stop offset=".58" stop-color="#cadb26"/>
			<stop offset=".89" stop-color="#a3cd39"/>
			<stop offset="1" stop-color="#a3cd39"/>
		</linearGradient>
		<clipPath clipPathUnits="userSpaceOnUse" id="cp3">
			<path d="m3.48 3.52l1.95 1.96c1.66-1.67 3.95-2.71 6.47-2.71q0.23 0 0.46 0.01l0.14-2.76q-0.3-0.02-0.6-0.02c-3.29 0-6.27 1.34-8.42 3.52z"/>
		</clipPath>
		<linearGradient id="g2" x2="1" gradientUnits="userSpaceOnUse" gradientTransform="matrix(7.754,-2.933,2.35,6.213,2.638,-0.688)">
			<stop offset="0" stop-color="#0fa8e0"/>
			<stop offset=".06" stop-color="#0fa8e0"/>
			<stop offset=".54" stop-color="#0099f9"/>
			<stop offset=".92" stop-color="#0291eb"/>
			<stop offset="1" stop-color="#0291eb"/>
		</linearGradient>
		<clipPath clipPathUnits="userSpaceOnUse" id="cp4">
			<path d="m11.91 21.23q-0.23 0-0.46-0.01l-0.14 2.77q0.3 0 0.59 0.01c3.29 0 6.27-1.34 8.42-3.51l-1.95-1.96c-1.66 1.67-3.95 2.71-6.47 2.71"/>
		</clipPath>
		<linearGradient id="g3" x2="1" gradientUnits="userSpaceOnUse" gradientTransform="matrix(8.762,-1.965,1.438,6.414,10.95,21.138)">
			<stop offset="0" stop-color="#a3cd39"/>
			<stop offset=".12" stop-color="#a3cd39"/>
			<stop offset=".28" stop-color="#86c339"/>
			<stop offset=".87" stop-color="#21a038"/>
			<stop offset="1" stop-color="#21a038"/>
		</linearGradient>
		<clipPath clipPathUnits="userSpaceOnUse" id="cp5">
			<path d="m11.91 2.77c1.91 0 3.69 0.6 5.16 1.61l2.32-1.72c-2.04-1.66-4.65-2.66-7.48-2.66z"/>
		</clipPath>
		<linearGradient id="g4" x2="1" gradientUnits="userSpaceOnUse" gradientTransform="matrix(7.496,2.296,-1.736,5.667,11.509,.537)">
			<stop offset="0" stop-color="#0291eb"/>
			<stop offset=".06" stop-color="#0291eb"/>
			<stop offset=".79" stop-color="#0c8acb"/>
			<stop offset="1" stop-color="#0c8acb"/>
		</linearGradient>
		<clipPath clipPathUnits="userSpaceOnUse" id="cp6">
			<path d="m3.07 20.05c2.18 2.42 5.33 3.95 8.83 3.95v-2.77c-2.69 0-5.11-1.18-6.79-3.04z"/>
		</clipPath>
		<linearGradient id="g5" x2="1" gradientUnits="userSpaceOnUse" gradientTransform="matrix(8.166,3.029,-2.505,6.755,2.938,21.835)">
			<stop offset="0" stop-color="#f2e913"/>
			<stop offset=".13" stop-color="#f2e913"/>
			<stop offset=".3" stop-color="#ebe716"/>
			<stop offset=".53" stop-color="#d9e01f"/>
			<stop offset=".8" stop-color="#bbd62d"/>
			<stop offset=".98" stop-color="#a3cd39"/>
			<stop offset="1" stop-color="#a3cd39"/>
		</linearGradient>
		<clipPath clipPathUnits="userSpaceOnUse" id="cp7">
			<path d="m0 12h2.75c0-2.71 1.16-5.15 3.02-6.84l-1.85-2.06c-2.41 2.19-3.92 5.37-3.92 8.9z"/>
		</clipPath>
		<linearGradient id="g6" x2="1" gradientUnits="userSpaceOnUse" gradientTransform="matrix(3.315,-8.561,7.084,2.744,4.991,13.935)">
			<stop offset="0" stop-color="#a3cd39"/>
			<stop offset=".07" stop-color="#a3cd39"/>
			<stop offset=".26" stop-color="#81c55f"/>
			<stop offset=".92" stop-color="#0fa8e0"/>
			<stop offset="1" stop-color="#0fa8e0"/>
		</linearGradient>
	</defs>
	<style>
		.s0 { fill: #21a038 } 
		.s1 { fill: url(#g1) } 
		.s2 { fill: url(#g2) } 
		.s3 { fill: url(#g3) } 
		.s4 { fill: url(#g4) } 
		.s5 { fill: url(#g5) } 
		.s6 { fill: url(#g6) } 
	</style>
	<g id="Clip-Path" clip-path="url(#cp1)">
		<g>
			<path class="s0" d="m21.3 4.7q0.9 1.1 1.5 2.3l-10.9 8.1-4.5-2.9v-3.4l4.5 2.9 9.4-7z"/>
			<g id="Clip-Path" clip-path="url(#cp2)">
				<g>
					<path class="s1" d="m4.8 9.7l-7.6 2.7 3.4 9.8 7.6-2.7z"/>
				</g>
			</g>
			<g id="Clip-Path" clip-path="url(#cp3)">
				<g>
					<path class="s2" d="m11.4-3l-9.7 3.7 2.9 7.8 9.7-3.7z"/>
				</g>
			</g>
			<g id="Clip-Path" clip-path="url(#cp4)">
				<g>
					<path class="s3" d="m19.9 16.6l-9.8 2.2 1.6 7.1 9.8-2.2z"/>
				</g>
			</g>
			<g id="Clip-Path" clip-path="url(#cp5)">
				<g>
					<path class="s4" d="m12.5-2.1l-1.8 6.1 8 2.5 1.9-6.1z"/>
				</g>
			</g>
			<path class="s0" d="m23.8 12q0-1.1-0.2-2.1l-2.5 1.9v0.2c0 2.7-1.2 5.2-3 6.8l1.8 2.1c2.4-2.2 3.9-5.4 3.9-8.9"/>
			<g id="Clip-Path" clip-path="url(#cp6)">
				<g>
					<path class="s5" d="m4.1 15.3l-2.9 8 9.6 3.6 3-8z"/>
				</g>
			</g>
			<g id="Clip-Path" clip-path="url(#cp7)">
				<g>
					<path class="s6" d="m0.7 1.2l-3.7 9.6 8 3.1 3.8-9.6z"/>
				</g>
			</g>
		</g>
	</g>
</svg>